<svg width="100" height="100" viewBox="0 0 100 100" fill="none" xmlns="http://www.w3.org/2000/svg">
<path d="M33.08 54V52.68H34.844V46.56H33.08V45.24H38.12V46.56H36.356V52.68H38.12V54H33.08ZM39.8193 54V47.4H41.0433V48.288H41.2953L41.0913 48.504C41.0913 48.136 41.1953 47.84 41.4033 47.616C41.6113 47.392 41.8793 47.28 42.2073 47.28C42.5593 47.28 42.8313 47.424 43.0233 47.712C43.2233 48 43.3233 48.388 43.3233 48.876L43.0593 48.288H43.4673L43.3113 48.504C43.3113 48.136 43.4153 47.84 43.6233 47.616C43.8313 47.392 44.1073 47.28 44.4513 47.28C44.8593 47.28 45.1833 47.432 45.4233 47.736C45.6633 48.04 45.7833 48.452 45.7833 48.972V54H44.4633V49.032C44.4633 48.816 44.4153 48.648 44.3193 48.528C44.2233 48.4 44.0833 48.336 43.8993 48.336C43.7233 48.336 43.5833 48.396 43.4793 48.516C43.3833 48.636 43.3353 48.808 43.3353 49.032V54H42.2553V49.032C42.2553 48.808 42.2073 48.636 42.1113 48.516C42.0153 48.396 41.8753 48.336 41.6913 48.336C41.5073 48.336 41.3673 48.396 41.2713 48.516C41.1833 48.636 41.1393 48.808 41.1393 49.032V54H39.8193ZM49.2586 54.12C48.5786 54.12 48.0426 53.94 47.6506 53.58C47.2586 53.22 47.0626 52.736 47.0626 52.128C47.0626 51.48 47.2786 50.98 47.7106 50.628C48.1426 50.276 48.7546 50.1 49.5466 50.1H51.1906V49.536C51.1906 49.216 51.0866 48.968 50.8786 48.792C50.6706 48.608 50.3866 48.516 50.0266 48.516C49.6986 48.516 49.4266 48.588 49.2106 48.732C48.9946 48.876 48.8666 49.072 48.8266 49.32H47.3626C47.4346 48.696 47.7146 48.2 48.2026 47.832C48.6906 47.464 49.3146 47.28 50.0746 47.28C50.8826 47.28 51.5186 47.484 51.9826 47.892C52.4546 48.292 52.6906 48.836 52.6906 49.524V54H51.2386V52.848H50.9986L51.2386 52.524C51.2386 53.012 51.0586 53.4 50.6986 53.688C50.3386 53.976 49.8586 54.12 49.2586 54.12ZM49.7506 52.992C50.1746 52.992 50.5186 52.884 50.7826 52.668C51.0546 52.452 51.1906 52.172 51.1906 51.828V51.024H49.5706C49.2666 51.024 49.0226 51.112 48.8386 51.288C48.6546 51.464 48.5626 51.696 48.5626 51.984C48.5626 52.296 48.6666 52.544 48.8746 52.728C49.0906 52.904 49.3826 52.992 49.7506 52.992ZM55.4099 56.16V54.912H57.3659C57.7019 54.912 57.9539 54.828 58.1219 54.66C58.2899 54.5 58.3739 54.268 58.3739 53.964V53.472L58.3979 52.236H58.0739L58.3979 51.912C58.3979 52.448 58.2379 52.868 57.9179 53.172C57.6059 53.468 57.1819 53.616 56.6459 53.616C55.9739 53.616 55.4379 53.388 55.0379 52.932C54.6459 52.476 54.4499 51.86 54.4499 51.084V49.8C54.4499 49.032 54.6459 48.42 55.0379 47.964C55.4379 47.508 55.9739 47.28 56.6459 47.28C57.1819 47.28 57.6059 47.432 57.9179 47.736C58.2379 48.032 58.3979 48.448 58.3979 48.984L58.0739 48.66H58.3979L58.3619 47.4H59.8619V54C59.8619 54.664 59.6419 55.188 59.2019 55.572C58.7619 55.964 58.1579 56.16 57.3899 56.16H55.4099ZM57.1499 52.32C57.5339 52.32 57.8299 52.208 58.0379 51.984C58.2539 51.752 58.3619 51.432 58.3619 51.024V49.872C58.3619 49.464 58.2539 49.148 58.0379 48.924C57.8299 48.692 57.5339 48.576 57.1499 48.576C56.7659 48.576 56.4699 48.688 56.2619 48.912C56.0539 49.136 55.9499 49.456 55.9499 49.872V51.024C55.9499 51.44 56.0539 51.76 56.2619 51.984C56.4699 52.208 56.7659 52.32 57.1499 52.32ZM64.3933 54.12C63.8333 54.12 63.3453 54.012 62.9293 53.796C62.5133 53.58 62.1893 53.28 61.9573 52.896C61.7333 52.504 61.6213 52.048 61.6213 51.528V49.872C61.6213 49.352 61.7333 48.9 61.9573 48.516C62.1893 48.124 62.5133 47.82 62.9293 47.604C63.3453 47.388 63.8333 47.28 64.3933 47.28C64.9453 47.28 65.4253 47.388 65.8333 47.604C66.2493 47.82 66.5693 48.124 66.7933 48.516C67.0253 48.9 67.1413 49.352 67.1413 49.872V51.06H63.0733V51.528C63.0733 51.992 63.1853 52.344 63.4093 52.584C63.6333 52.816 63.9653 52.932 64.4053 52.932C64.7413 52.932 65.0133 52.876 65.2213 52.764C65.4293 52.644 65.5613 52.472 65.6173 52.248H67.0933C66.9813 52.816 66.6773 53.272 66.1813 53.616C65.6933 53.952 65.0973 54.12 64.3933 54.12ZM65.6893 50.22V49.86C65.6893 49.404 65.5813 49.056 65.3653 48.816C65.1493 48.568 64.8253 48.444 64.3933 48.444C63.9613 48.444 63.6333 48.568 63.4093 48.816C63.1853 49.064 63.0733 49.416 63.0733 49.872V50.124L65.7973 50.1L65.6893 50.22Z" fill="url(#paint0_radial_5_6)"/>
<defs>
<radialGradient id="paint0_radial_5_6" cx="0" cy="0" r="1" gradientUnits="userSpaceOnUse" gradientTransform="translate(39.56 45.92) rotate(21.9434) scale(26.9742 18.7897)">
<stop stop-color="#E3970B"/>
<stop offset="1" stop-color="#E36D0B"/>
</radialGradient>
</defs>
</svg>
