<svg width="1514" height="984" viewBox="0 0 1514 984" fill="none" xmlns="http://www.w3.org/2000/svg">
<path d="M883 860.25H1009V983H883V860.25Z" fill="#13151B" fill-opacity="0.01"/>
<path d="M757 860.25H883V983H757V860.25Z" fill="#13151B" fill-opacity="0.01"/>
<path d="M883 737.5H1009V860.25H883V737.5Z" fill="#13151B" fill-opacity="0.01"/>
<path d="M757 737.5H883V860.25H757V737.5Z" fill="#13151B" fill-opacity="0.01"/>
<path d="M631 860.25H757V983H631V860.25Z" fill="#13151B" fill-opacity="0.01"/>
<path d="M505 860.25H631V983H505V860.25Z" fill="#13151B" fill-opacity="0.01"/>
<path d="M631 737.5H757V860.25H631V737.5Z" fill="#13151B" fill-opacity="0.01"/>
<path d="M505 737.5H631V860.25H505V737.5Z" fill="#13151B" fill-opacity="0.01"/>
<path d="M379 860.25H505V983H379V860.25Z" fill="#13151B" fill-opacity="0.01"/>
<path d="M253 860.25H379V983H253V860.25Z" fill="#15171D" fill-opacity="0.01"/>
<path d="M379 737.5H505V860.25H379V737.5Z" fill="#13151B" fill-opacity="0.01"/>
<path d="M253 737.5H379V860.25H253V737.5Z" fill="#13151B" fill-opacity="0.01"/>
<path d="M127 860.25H253V983H127V860.25Z" fill="#13151B" fill-opacity="0.01"/>
<path d="M1 860.25H127V983H1V860.25Z" fill="#13151B" fill-opacity="0.01"/>
<path d="M127 737.5H253V860.25H127V737.5Z" fill="#13151B" fill-opacity="0.01"/>
<path d="M1 737.5H127V860.25H1V737.5Z" fill="#13151B" fill-opacity="0.01"/>
<path d="M883 614.75H1009V737.5H883V614.75Z" fill="#13151B" fill-opacity="0.01"/>
<path d="M757 614.75H883V737.5H757V614.75Z" fill="#13151B" fill-opacity="0.01"/>
<path d="M883 492H1009V614.75H883V492Z" fill="#13151B" fill-opacity="0.01"/>
<path d="M757 492H883V614.75H757V492Z" fill="#13151B" fill-opacity="0.01"/>
<path d="M631 614.75H757V737.5H631V614.75Z" fill="#13151B" fill-opacity="0.01"/>
<path d="M505 614.75H631V737.5H505V614.75Z" fill="#13151B" fill-opacity="0.01"/>
<path d="M631 492H757V614.75H631V492Z" fill="#15171D" fill-opacity="0.01"/>
<path d="M505 492H631V614.75H505V492Z" fill="#13151B" fill-opacity="0.01"/>
<path d="M379 614.75H505V737.5H379V614.75Z" fill="#111318" fill-opacity="0.01"/>
<path d="M253 614.75H379V737.5H253V614.75Z" fill="#13151B" fill-opacity="0.01"/>
<path d="M379 492H505V614.75H379V492Z" fill="#13151B" fill-opacity="0.01"/>
<path d="M253 492H379V614.75H253V492Z" fill="#13151B" fill-opacity="0.01"/>
<path d="M127 614.75H253V737.5H127V614.75Z" fill="#13151B" fill-opacity="0.01"/>
<path d="M1 614.75H127V737.5H1V614.75Z" fill="#13151B" fill-opacity="0.01"/>
<path d="M127 492H253V614.75H127V492Z" fill="#13151B" fill-opacity="0.01"/>
<path d="M1 492H127V614.75H1V492Z" fill="#13151B" fill-opacity="0.01"/>
<path d="M883 369.25H1009V492H883V369.25Z" fill="#13151B" fill-opacity="0.01"/>
<path d="M757 369.25H883V492H757V369.25Z" fill="#13151B" fill-opacity="0.01"/>
<path d="M883 246.5H1009V369.25H883V246.5Z" fill="#13151B" fill-opacity="0.01"/>
<path d="M757 246.5H883V369.25H757V246.5Z" fill="#12141A" fill-opacity="0.01"/>
<path d="M631 369.25H757V492H631V369.25Z" fill="#13151B" fill-opacity="0.01"/>
<path d="M505 369.25H631V492H505V369.25Z" fill="#13151B" fill-opacity="0.01"/>
<path d="M631 246.5H757V369.25H631V246.5Z" fill="#13151B" fill-opacity="0.01"/>
<path d="M505 246.5H631V369.25H505V246.5Z" fill="#13151B" fill-opacity="0.01"/>
<path d="M883 123.75H1009V246.5H883V123.75Z" fill="#13151B" fill-opacity="0.01"/>
<path d="M757 123.75H883V246.5H757V123.75Z" fill="#13151B" fill-opacity="0.01"/>
<path d="M883 1H1009V123.75H883V1Z" fill="#13151B" fill-opacity="0.01"/>
<path d="M757 1H883V123.75H757V1Z" fill="#13151B" fill-opacity="0.01"/>
<path d="M631 123.75H757V246.5H631V123.75Z" fill="#13151B" fill-opacity="0.01"/>
<path d="M505 123.75H631V246.5H505V123.75Z" fill="#15171D" fill-opacity="0.01"/>
<path d="M631 1H757V123.75H631V1Z" fill="#13151B" fill-opacity="0.01"/>
<path d="M505 1H631V123.75H505V1Z" fill="#13151B" fill-opacity="0.01"/>
<path d="M379 369.25H505V492H379V369.25Z" fill="#13151B" fill-opacity="0.01"/>
<path d="M253 369.25H379V492H253V369.25Z" fill="#13151B" fill-opacity="0.01"/>
<path d="M379 246.5H505V369.25H379V246.5Z" fill="#13151B" fill-opacity="0.01"/>
<path d="M253 246.5H379V369.25H253V246.5Z" fill="#13151B" fill-opacity="0.01"/>
<path d="M127 369.25H253V492H127V369.25Z" fill="#15171D" fill-opacity="0.01"/>
<path d="M1 369.25H127V492H1V369.25Z" fill="#13151B" fill-opacity="0.01"/>
<path d="M127 246.5H253V369.25H127V246.5Z" fill="#181A20" fill-opacity="0.01"/>
<path d="M1 246.5H127V369.25H1V246.5Z" fill="#13151B" fill-opacity="0.01"/>
<path d="M379 123.75H505V246.5H379V123.75Z" fill="#13151B" fill-opacity="0.01"/>
<path d="M253 123.75H379V246.5H253V123.75Z" fill="#13151B" fill-opacity="0.01"/>
<path d="M379 1H505V123.75H379V1Z" fill="#13151B" fill-opacity="0.01"/>
<path d="M253 1H379V123.75H253V1Z" fill="#13151B" fill-opacity="0.01"/>
<path d="M127 123.75H253V246.5H127V123.75Z" fill="#13151B" fill-opacity="0.01"/>
<path d="M1 123.75H127V246.5H1V123.75Z" fill="#111318" fill-opacity="0.01"/>
<path d="M127 1H253V123.75H127V1Z" fill="#13151B" fill-opacity="0.01"/>
<path d="M1 1H127V123.75H1V1Z" fill="#13151B" fill-opacity="0.01"/>
<path d="M1387 860.25H1513V983H1387V860.25Z" fill="#13151B" fill-opacity="0.01"/>
<path d="M1261 860.25H1387V983H1261V860.25Z" fill="#13151B" fill-opacity="0.01"/>
<path d="M1387 737.5H1513V860.25H1387V737.5Z" fill="#13151B" fill-opacity="0.01"/>
<path d="M1261 737.5H1387V860.25H1261V737.5Z" fill="#181A20" fill-opacity="0.01"/>
<path d="M1135 860.25H1261V983H1135V860.25Z" fill="#13151B" fill-opacity="0.01"/>
<path d="M1009 860.25H1135V983H1009V860.25Z" fill="#13151B" fill-opacity="0.01"/>
<path d="M1135 737.5H1261V860.25H1135V737.5Z" fill="#13151B" fill-opacity="0.01"/>
<path d="M1009 737.5H1135V860.25H1009V737.5Z" fill="#13151B" fill-opacity="0.01"/>
<path d="M1387 614.75H1513V737.5H1387V614.75Z" fill="#13151B" fill-opacity="0.01"/>
<path d="M1261 614.75H1387V737.5H1261V614.75Z" fill="#13151B" fill-opacity="0.01"/>
<path d="M1387 492H1513V614.75H1387V492Z" fill="#13151B" fill-opacity="0.01"/>
<path d="M1261 492H1387V614.75H1261V492Z" fill="#13151B" fill-opacity="0.01"/>
<path d="M1135 614.75H1261V737.5H1135V614.75Z" fill="#12141A" fill-opacity="0.01"/>
<path d="M1009 614.75H1135V737.5H1009V614.75Z" fill="#13151B" fill-opacity="0.01"/>
<path d="M1135 492H1261V614.75H1135V492Z" fill="#13151B" fill-opacity="0.01"/>
<path d="M1009 492H1135V614.75H1009V492Z" fill="#13151B" fill-opacity="0.01"/>
<path d="M1387 369.25H1513V492H1387V369.25Z" fill="#111318" fill-opacity="0.01"/>
<path d="M1261 369.25H1387V492H1261V369.25Z" fill="#13151B" fill-opacity="0.01"/>
<path d="M1387 246.5H1513V369.25H1387V246.5Z" fill="#13151B" fill-opacity="0.01"/>
<path d="M1261 246.5H1387V369.25H1261V246.5Z" fill="#13151B" fill-opacity="0.01"/>
<path d="M1135 369.25H1261V492H1135V369.25Z" fill="#13151B" fill-opacity="0.01"/>
<path d="M1009 369.25H1135V492H1009V369.25Z" fill="#13151B" fill-opacity="0.01"/>
<path d="M1135 246.5H1261V369.25H1135V246.5Z" fill="#15171D" fill-opacity="0.01"/>
<path d="M1009 246.5H1135V369.25H1009V246.5Z" fill="#13151B" fill-opacity="0.01"/>
<path d="M1387 123.75H1513V246.5H1387V123.75Z" fill="#13151B" fill-opacity="0.01"/>
<path d="M1261 123.75H1387V246.5H1261V123.75Z" fill="#13151B" fill-opacity="0.01"/>
<path d="M1387 1H1513V123.75H1387V1Z" fill="#13151B" fill-opacity="0.01"/>
<path d="M1261 1H1387V123.75H1261V1Z" fill="#181A20" fill-opacity="0.01"/>
<path d="M1135 123.75H1261V246.5H1135V123.75Z" fill="#13151B" fill-opacity="0.01"/>
<path d="M1009 123.75H1135V246.5H1009V123.75Z" fill="#13151B" fill-opacity="0.01"/>
<path d="M1135 1H1261V123.75H1135V1Z" fill="#13151B" fill-opacity="0.01"/>
<path d="M1009 1H1135V123.75H1009V1Z" fill="#13151B" fill-opacity="0.01"/>
<path d="M883 860.25H1009M883 860.25V983M883 860.25H757M883 860.25V737.5M1009 860.25V983M1009 860.25V737.5M1009 860.25H1135M1009 983H883M1009 983H1135M883 983H757M757 860.25V983M757 860.25V737.5M757 860.25H631M757 983H631M883 737.5H1009M883 737.5H757M883 737.5V614.75M1009 737.5V614.75M1009 737.5H1135M757 737.5H631M757 737.5V614.75M631 860.25V983M631 860.25H505M631 860.25V737.5M631 983H505M505 860.25V983M505 860.25V737.5M505 860.25H379M505 983H379M631 737.5H505M631 737.5V614.75M505 737.5H379M505 737.5V614.75M379 860.25V983M379 860.25H253M379 860.25V737.5M379 983H253M253 860.25V983M253 860.25V737.5M253 860.25H127M253 983H127M379 737.5H253M379 737.5V614.75M253 737.5H127M253 737.5V614.75M127 860.25V983M127 860.25H1M127 860.25V737.5M127 983H1V860.25M1 860.25V737.5M127 737.5H1M127 737.5V614.75M1 737.5V614.75M883 614.75H1009M883 614.75H757M883 614.75V492M1009 614.75V492M1009 614.75H1135M757 614.75V492M757 614.75H631M883 492H1009M883 492H757M883 492V369.25M1009 492V369.25M1009 492H1135M757 492H631M757 492V369.25M631 614.75H505M631 614.75V492M505 614.75V492M505 614.75H379M631 492H505M631 492V369.25M505 492H379M505 492V369.25M379 614.75H253M379 614.75V492M253 614.75V492M253 614.75H127M379 492H253M379 492V369.25M253 492H127M253 492V369.25M127 614.75H1M127 614.75V492M1 614.75V492M127 492H1M127 492V369.25M1 492V369.25M883 369.25H1009M883 369.25H757M883 369.25V246.5M1009 369.25V246.5M1009 369.25H1135M757 369.25V246.5M757 369.25H631M883 246.5H1009M883 246.5H757M883 246.5V123.75M1009 246.5V123.75M1009 246.5H1135M757 246.5H631M757 246.5V123.75M631 369.25H505M631 369.25V246.5M505 369.25V246.5M505 369.25H379M631 246.5H505M631 246.5V123.75M505 246.5V123.75M505 246.5H379M883 123.75H1009M883 123.75H757M883 123.75V1M1009 123.75V1M1009 123.75H1135M757 123.75V1M757 123.75H631M883 1H1009M883 1H757M1009 1H1135M757 1H631M631 123.75H505M631 123.75V1M505 123.75V1M505 123.75H379M631 1H505M505 1H379M379 369.25H253M379 369.25V246.5M253 369.25V246.5M253 369.25H127M379 246.5H253M379 246.5V123.75M253 246.5H127M253 246.5V123.75M127 369.25H1M127 369.25V246.5M1 369.25V246.5M127 246.5H1M127 246.5V123.75M1 246.5V123.75M379 123.75H253M379 123.75V1M253 123.75V1M253 123.75H127M379 1H253M253 1H127M127 123.75H1M127 123.75V1M1 123.75V1H127M1513 860.25V983H1387M1513 860.25V737.5M1513 860.25H1387M1513 737.5H1387M1513 737.5V614.75M1387 860.25V983M1387 860.25H1261M1387 860.25V737.5M1387 983H1261M1261 860.25V983M1261 860.25V737.5M1261 860.25H1135M1261 983H1135M1387 737.5H1261M1387 737.5V614.75M1261 737.5H1135M1261 737.5V614.75M1135 860.25V983M1135 860.25V737.5M1135 737.5V614.75M1513 614.75V492M1513 614.75H1387M1513 492H1387M1513 492V369.25M1387 614.75H1261M1387 614.75V492M1261 614.75V492M1261 614.75H1135M1387 492H1261M1387 492V369.25M1261 492H1135M1261 492V369.25M1135 614.75V492M1135 492V369.25M1513 369.25V246.5M1513 369.25H1387M1513 246.5V123.75M1513 246.5H1387M1513 123.75V1H1387M1513 123.75H1387M1387 369.25H1261M1387 369.25V246.5M1261 369.25V246.5M1261 369.25H1135M1387 246.5H1261M1387 246.5V123.75M1261 246.5H1135M1261 246.5V123.75M1135 369.25V246.5M1135 246.5V123.75M1387 123.75H1261M1387 123.75V1M1261 123.75V1M1261 123.75H1135M1387 1H1261M1261 1H1135M1135 123.75V1" stroke="url(#paint0_radial_435_55)"/>
<defs>
<radialGradient id="paint0_radial_435_55" cx="0" cy="0" r="1" gradientUnits="userSpaceOnUse" gradientTransform="translate(757 492) rotate(90) scale(634.5 1302.6)">
<stop stop-color="#26282D"/>
<stop offset="1" stop-color="#1F2126" stop-opacity="0"/>
<stop offset="1" stop-color="#26282D" stop-opacity="0"/>
</radialGradient>
</defs>
</svg>
