<svg width="758" height="1229" viewBox="0 0 758 1229" fill="none" xmlns="http://www.w3.org/2000/svg">
<path d="M631 1105.75H757V1228.5H631V1105.75Z" fill="#13151B" fill-opacity="0.01"/>
<path d="M505 1105.75H631V1228.5H505V1105.75Z" fill="#13151B" fill-opacity="0.01"/>
<path d="M631 983H757V1105.75H631V983Z" fill="#13151B" fill-opacity="0.01"/>
<path d="M505 983H631V1105.75H505V983Z" fill="#13151B" fill-opacity="0.01"/>
<path d="M379 1105.75H505V1228.5H379V1105.75Z" fill="#13151B" fill-opacity="0.01"/>
<path d="M253 1105.75H379V1228.5H253V1105.75Z" fill="#15171D" fill-opacity="0.01"/>
<path d="M379 983H505V1105.75H379V983Z" fill="#13151B" fill-opacity="0.01"/>
<path d="M253 983H379V1105.75H253V983Z" fill="#13151B" fill-opacity="0.01"/>
<path d="M127 1105.75H253V1228.5H127V1105.75Z" fill="#13151B" fill-opacity="0.01"/>
<path d="M1 1105.75H127V1228.5H1V1105.75Z" fill="#13151B" fill-opacity="0.01"/>
<path d="M127 983H253V1105.75H127V983Z" fill="#13151B" fill-opacity="0.01"/>
<path d="M1 983H127V1105.75H1V983Z" fill="#13151B" fill-opacity="0.01"/>
<path d="M631 860.25H757V983H631V860.25Z" fill="#13151B" fill-opacity="0.01"/>
<path d="M505 860.25H631V983H505V860.25Z" fill="#13151B" fill-opacity="0.01"/>
<path d="M631 737.5H757V860.25H631V737.5Z" fill="#15171D" fill-opacity="0.01"/>
<path d="M505 737.5H631V860.25H505V737.5Z" fill="#13151B" fill-opacity="0.01"/>
<path d="M379 860.25H505V983H379V860.25Z" fill="#111318" fill-opacity="0.01"/>
<path d="M253 860.25H379V983H253V860.25Z" fill="#13151B" fill-opacity="0.01"/>
<path d="M379 737.5H505V860.25H379V737.5Z" fill="#13151B" fill-opacity="0.01"/>
<path d="M253 737.5H379V860.25H253V737.5Z" fill="#13151B" fill-opacity="0.01"/>
<path d="M127 860.25H253V983H127V860.25Z" fill="#13151B" fill-opacity="0.01"/>
<path d="M1 860.25H127V983H1V860.25Z" fill="#13151B" fill-opacity="0.01"/>
<path d="M127 737.5H253V860.25H127V737.5Z" fill="#13151B" fill-opacity="0.01"/>
<path d="M1 737.5H127V860.25H1V737.5Z" fill="#13151B" fill-opacity="0.01"/>
<path d="M631 614.75H757V737.5H631V614.75Z" fill="#13151B" fill-opacity="0.01"/>
<path d="M505 614.75H631V737.5H505V614.75Z" fill="#13151B" fill-opacity="0.01"/>
<path d="M631 492H757V614.75H631V492Z" fill="#13151B" fill-opacity="0.01"/>
<path d="M505 492H631V614.75H505V492Z" fill="#13151B" fill-opacity="0.01"/>
<path d="M631 369.25H757V492H631V369.25Z" fill="#13151B" fill-opacity="0.01"/>
<path d="M505 369.25H631V492H505V369.25Z" fill="#15171D" fill-opacity="0.01"/>
<path d="M631 246.5H757V369.25H631V246.5Z" fill="#13151B" fill-opacity="0.01"/>
<path d="M505 246.5H631V369.25H505V246.5Z" fill="#13151B" fill-opacity="0.01"/>
<path d="M379 614.75H505V737.5H379V614.75Z" fill="#13151B" fill-opacity="0.01"/>
<path d="M253 614.75H379V737.5H253V614.75Z" fill="#13151B" fill-opacity="0.01"/>
<path d="M379 492H505V614.75H379V492Z" fill="#13151B" fill-opacity="0.01"/>
<path d="M253 492H379V614.75H253V492Z" fill="#13151B" fill-opacity="0.01"/>
<path d="M127 614.75H253V737.5H127V614.75Z" fill="#15171D" fill-opacity="0.01"/>
<path d="M1 614.75H127V737.5H1V614.75Z" fill="#13151B" fill-opacity="0.01"/>
<path d="M127 492H253V614.75H127V492Z" fill="#181A20" fill-opacity="0.01"/>
<path d="M1 492H127V614.75H1V492Z" fill="#13151B" fill-opacity="0.01"/>
<path d="M379 369.25H505V492H379V369.25Z" fill="#13151B" fill-opacity="0.01"/>
<path d="M253 369.25H379V492H253V369.25Z" fill="#13151B" fill-opacity="0.01"/>
<path d="M379 246.5H505V369.25H379V246.5Z" fill="#13151B" fill-opacity="0.01"/>
<path d="M253 246.5H379V369.25H253V246.5Z" fill="#13151B" fill-opacity="0.01"/>
<path d="M127 369.25H253V492H127V369.25Z" fill="#13151B" fill-opacity="0.01"/>
<path d="M1 369.25H127V492H1V369.25Z" fill="#111318" fill-opacity="0.01"/>
<path d="M127 246.5H253V369.25H127V246.5Z" fill="#13151B" fill-opacity="0.01"/>
<path d="M1 246.5H127V369.25H1V246.5Z" fill="#13151B" fill-opacity="0.01"/>
<path d="M631 123.75H757V246.5H631V123.75Z" fill="#13151B" fill-opacity="0.01"/>
<path d="M505 123.75H631V246.5H505V123.75Z" fill="#13151B" fill-opacity="0.01"/>
<path d="M631 1H757V123.75H631V1Z" fill="#13151B" fill-opacity="0.01"/>
<path d="M505 1H631V123.75H505V1Z" fill="#13151B" fill-opacity="0.01"/>
<path d="M379 123.75H505V246.5H379V123.75Z" fill="#13151B" fill-opacity="0.01"/>
<path d="M253 123.75H379V246.5H253V123.75Z" fill="#15171D" fill-opacity="0.01"/>
<path d="M379 1H505V123.75H379V1Z" fill="#13151B" fill-opacity="0.01"/>
<path d="M253 1H379V123.75H253V1Z" fill="#13151B" fill-opacity="0.01"/>
<path d="M127 123.75H253V246.5H127V123.75Z" fill="#13151B" fill-opacity="0.01"/>
<path d="M1 123.75H127V246.5H1V123.75Z" fill="#13151B" fill-opacity="0.01"/>
<path d="M127 1H253V123.75H127V1Z" fill="#13151B" fill-opacity="0.01"/>
<path d="M1 1H127V123.75H1V1Z" fill="#13151B" fill-opacity="0.01"/>
<path d="M757 1105.75V1228.5H631M757 1105.75V983M757 1105.75H631M757 983H631M757 983V860.25M631 1105.75V1228.5M631 1105.75H505M631 1105.75V983M631 1228.5H505M505 1105.75V1228.5M505 1105.75V983M505 1105.75H379M505 1228.5H379M631 983H505M631 983V860.25M505 983H379M505 983V860.25M379 1105.75V1228.5M379 1105.75H253M379 1105.75V983M379 1228.5H253M253 1105.75V1228.5M253 1105.75V983M253 1105.75H127M253 1228.5H127M379 983H253M379 983V860.25M253 983H127M253 983V860.25M127 1105.75V1228.5M127 1105.75H1M127 1105.75V983M127 1228.5H1V1105.75M1 1105.75V983M127 983H1M127 983V860.25M1 983V860.25M757 860.25V737.5M757 860.25H631M757 737.5H631M757 737.5V614.75M631 860.25H505M631 860.25V737.5M505 860.25V737.5M505 860.25H379M631 737.5H505M631 737.5V614.75M505 737.5H379M505 737.5V614.75M379 860.25H253M379 860.25V737.5M253 860.25V737.5M253 860.25H127M379 737.5H253M379 737.5V614.75M253 737.5H127M253 737.5V614.75M127 860.25H1M127 860.25V737.5M1 860.25V737.5M127 737.5H1M127 737.5V614.75M1 737.5V614.75M757 614.75V492M757 614.75H631M757 492H631M757 492V369.25M631 614.75H505M631 614.75V492M505 614.75V492M505 614.75H379M631 492H505M631 492V369.25M505 492V369.25M505 492H379M757 369.25V246.5M757 369.25H631M757 246.5H631M757 246.5V123.75M631 369.25H505M631 369.25V246.5M505 369.25V246.5M505 369.25H379M631 246.5H505M631 246.5V123.75M505 246.5H379M505 246.5V123.75M379 614.75H253M379 614.75V492M253 614.75V492M253 614.75H127M379 492H253M379 492V369.25M253 492H127M253 492V369.25M127 614.75H1M127 614.75V492M1 614.75V492M127 492H1M127 492V369.25M1 492V369.25M379 369.25H253M379 369.25V246.5M253 369.25V246.5M253 369.25H127M379 246.5H253M379 246.5V123.75M253 246.5H127M253 246.5V123.75M127 369.25H1M127 369.25V246.5M1 369.25V246.5M127 246.5H1M127 246.5V123.75M1 246.5V123.75M757 123.75V1H631M757 123.75H631M631 123.75H505M631 123.75V1M505 123.75V1M505 123.75H379M631 1H505M505 1H379M379 123.75H253M379 123.75V1M253 123.75V1M253 123.75H127M379 1H253M253 1H127M127 123.75H1M127 123.75V1M1 123.75V1H127" stroke="url(#paint0_radial_437_35)"/>
<defs>
<radialGradient id="paint0_radial_437_35" cx="0" cy="0" r="1" gradientUnits="userSpaceOnUse" gradientTransform="translate(379 614.75) rotate(90) scale(613.75 378)">
<stop offset="0.739583" stop-color="#26282D"/>
<stop offset="0.9999" stop-color="#26282D" stop-opacity="0"/>
<stop offset="1" stop-color="#26282D" stop-opacity="0"/>
</radialGradient>
</defs>
</svg>
