<svg width="834" height="1251" viewBox="0 0 834 1251" fill="none" xmlns="http://www.w3.org/2000/svg">
<path d="M729.75 521.25V417M729.75 521.25H834M729.75 521.25V625.5M729.75 521.25H625.5M729.75 417H834M729.75 417H625.5M729.75 417V312.75M834 417V521.25M834 417V312.75M834 521.25V625.5M729.75 625.5H834M729.75 625.5H625.5M729.75 625.5V729.75M834 625.5V729.75M625.5 521.25V417M625.5 521.25V625.5M625.5 521.25H521.25M625.5 417H521.25M625.5 417V312.75M625.5 625.5V729.75M625.5 625.5H521.25M729.75 729.75H834M729.75 729.75V834M729.75 729.75H625.5M834 729.75V834M729.75 834H834M729.75 834H625.5M729.75 834V938.25M834 834V938.25M625.5 729.75V834M625.5 729.75H521.25M625.5 834V938.25M625.5 834H521.25M729.75 938.25H834M729.75 938.25V1042.5M729.75 938.25H625.5M834 938.25V1042.5M729.75 1042.5H834M729.75 1042.5H625.5M729.75 1042.5V1146.75M834 1042.5V1146.75M625.5 938.25V1042.5M625.5 938.25H521.25M625.5 1042.5V1146.75M625.5 1042.5H521.25M729.75 1146.75H834M729.75 1146.75V1251M729.75 1146.75H625.5M834 1146.75V1251H729.75M729.75 1251H625.5M625.5 1146.75V1251M625.5 1146.75H521.25M625.5 1251H521.25M521.25 521.25V417M521.25 521.25V625.5M521.25 521.25H417M521.25 417H417M521.25 417V312.75M521.25 625.5H417M521.25 625.5V729.75M417 521.25V417M417 521.25V625.5M417 521.25H312.75M417 417H312.75M417 417V312.75M417 625.5V729.75M417 625.5H312.75M521.25 729.75V834M521.25 729.75H417M521.25 834H417M521.25 834V938.25M417 729.75V834M417 729.75H312.75M417 834V938.25M417 834H312.75M521.25 938.25V1042.5M521.25 938.25H417M521.25 1042.5H417M521.25 1042.5V1146.75M417 938.25V1042.5M417 938.25H312.75M417 1042.5V1146.75M417 1042.5H312.75M521.25 1146.75V1251M521.25 1146.75H417M521.25 1251H417M417 1146.75V1251M417 1146.75H312.75M417 1251H312.75M312.75 521.25V417M312.75 521.25V625.5M312.75 521.25H208.5M312.75 417H208.5M312.75 417V312.75M312.75 625.5H208.5M312.75 625.5V729.75M208.5 521.25V417M208.5 521.25V625.5M208.5 521.25H104.25M208.5 417H104.25M208.5 417V312.75M208.5 625.5V729.75M208.5 625.5H104.25M312.75 729.75V834M312.75 729.75H208.5M312.75 834H208.5M312.75 834V938.25M208.5 729.75V834M208.5 729.75H104.25M208.5 834H104.25M208.5 834V938.25M104.25 521.25V417M104.25 521.25V625.5M104.25 521.25H0M104.25 417H0M104.25 417V312.75M104.25 625.5H0M104.25 625.5V729.75M0 521.25L0 417M0 521.25L0 625.5M0 417L0 312.75M0 625.5L0 729.75M104.25 729.75L104.25 834M104.25 729.75H0M104.25 834H0M104.25 834V938.25M0 729.75L0 834M0 834L0 938.25M312.75 938.25V1042.5M312.75 938.25H208.5M312.75 1042.5H208.5M312.75 1042.5V1146.75M208.5 938.25V1042.5M208.5 938.25H104.25M208.5 1042.5V1146.75M208.5 1042.5H104.25M312.75 1146.75V1251M312.75 1146.75H208.5M312.75 1251H208.5M208.5 1146.75V1251M208.5 1146.75H104.25M208.5 1251H104.25M104.25 938.25V1042.5M104.25 938.25H0M104.25 1042.5H0M104.25 1042.5V1146.75M0 938.25L0 1042.5M0 1042.5L0 1146.75M104.25 1146.75V1251M104.25 1146.75H0M104.25 1251H0L0 1146.75M729.75 0H834V104.25M729.75 0H625.5M729.75 0V104.25M625.5 0V104.25M625.5 0H521.25M729.75 104.25H834M729.75 104.25V208.5M729.75 104.25H625.5M834 104.25V208.5M729.75 208.5H834M729.75 208.5H625.5M729.75 208.5V312.75M834 208.5V312.75M625.5 104.25V208.5M625.5 104.25H521.25M625.5 208.5V312.75M625.5 208.5H521.25M729.75 312.75H834M729.75 312.75H625.5M625.5 312.75H521.25M521.25 0H417M521.25 0V104.25M417 0V104.25M417 0H312.75M521.25 104.25V208.5M521.25 104.25H417M521.25 208.5H417M521.25 208.5V312.75M417 104.25V208.5M417 104.25H312.75M417 208.5V312.75M417 208.5H312.75M521.25 312.75H417M417 312.75H312.75M312.75 0H208.5M312.75 0V104.25M208.5 0H104.25M208.5 0V104.25M104.25 0H0L0 104.25M104.25 0V104.25M312.75 104.25V208.5M312.75 104.25H208.5M312.75 208.5H208.5M312.75 208.5V312.75M208.5 104.25V208.5M208.5 104.25H104.25M208.5 208.5L208.5 312.75M208.5 208.5H104.25M312.75 312.75H208.5M208.5 312.75H104.25M104.25 104.25V208.5M104.25 104.25H0M104.25 208.5H0M104.25 208.5V312.75M0 104.25L0 208.5M0 208.5L0 312.75M104.25 312.75H0" stroke="url(#paint0_radial_708_29)" stroke-width="1.0425"/>
<defs>
<radialGradient id="paint0_radial_708_29" cx="0" cy="0" r="1" gradientUnits="userSpaceOnUse" gradientTransform="translate(417 626) scale(417 834)">
<stop offset="0.520833" stop-color="#26282D"/>
<stop offset="1" stop-color="#26282D" stop-opacity="0"/>
</radialGradient>
</defs>
</svg>
